<?xml version="1.0" encoding="UTF-8" standalone="no"?>
<svg
   xmlns:dc="http://purl.org/dc/elements/1.1/"
   xmlns:cc="http://creativecommons.org/ns#"
   xmlns:rdf="http://www.w3.org/1999/02/22-rdf-syntax-ns#"
   xmlns:svg="http://www.w3.org/2000/svg"
   xmlns="http://www.w3.org/2000/svg"
   viewBox="0 0 3174.8 1133.8533"
   height="1133.8533"
   width="3174.8"
   xml:space="preserve"
   id="svg2"
   version="1.1"><metadata
     id="metadata8"><rdf:RDF><cc:Work
         rdf:about=""><dc:format>image/svg+xml</dc:format><dc:type
           rdf:resource="http://purl.org/dc/dcmitype/StillImage" /></cc:Work></rdf:RDF></metadata><defs
     id="defs6" /><g
     transform="matrix(1.3333333,0,0,-1.3333333,0,1133.8533)"
     id="g10"><g
       transform="scale(0.1)"
       id="g12"><g
         transform="scale(1.26934)"
         id="g14"><path
           id="path16"
           style="fill:#3c829d;fill-opacity:1;fill-rule:nonzero;stroke:none"
           d="m 16300,2568.92 v 0 36.12 c 0,451.69 -120.4,807.01 -355.2,1059.94 -240.9,258.96 -560.1,391.45 -975.6,391.45 -397.4,0 -722.6,-132.49 -987.5,-385.42 -258.9,-252.94 -385.4,-578.15 -385.4,-963.58 0,-391.45 126.5,-704.61 385.4,-945.51 264.9,-240.9 608.2,-355.32 1041.7,-355.32 289.1,0 529.9,48.18 728.7,150.56 198.7,102.38 337.2,246.92 421.5,439.63 l -662.4,271.01 c -48.2,-102.38 -114.4,-174.65 -204.7,-228.85 -90.4,-48.18 -204.8,-72.26 -331.2,-72.26 -180.7,0 -313.2,48.17 -409.5,156.58 -96.4,102.38 -144.6,252.93 -144.6,445.65 z m -861.1,493.83 v 0 h -999.6 c 24.2,150.56 84.3,264.98 168.6,343.27 78.3,78.29 192.7,120.44 337.2,120.44 132.5,0 240.9,-48.17 331.2,-132.48 90.4,-84.32 144.6,-192.71 162.6,-331.23 m -5013.3,2234.29 v 0 -3794.08 h 800.9 v 397.47 c 108.4,-162.6 234.8,-289.07 373.3,-373.38 138.5,-84.31 295.1,-120.45 463.7,-120.45 349.2,0 626.2,114.42 830.9,355.32 204.8,240.9 313.2,566.11 313.2,975.62 0,391.46 -108.4,710.64 -313.2,951.54 -204.7,240.88 -469.7,367.35 -800.8,367.35 -210.8,0 -385.4,-42.16 -511.9,-114.42 -132.4,-78.28 -252.9,-204.76 -355.2,-379.41 12,48.19 18,108.41 18,180.68 6,66.24 12.1,156.57 12.1,258.96 v 1294.8 z m 770.8,-2559.5 v 0 c 0,186.7 48.1,343.28 150.5,451.68 102.4,108.4 240.9,168.62 415.5,168.62 180.6,0 319.2,-60.22 421.5,-168.62 102.4,-108.4 156.6,-264.98 156.6,-451.68 0,-198.73 -54.2,-349.3 -156.6,-457.69 -102.3,-108.41 -240.9,-162.61 -421.5,-162.61 -174.6,0 -313.1,54.2 -415.5,162.61 -102.4,108.39 -150.5,264.97 -150.5,457.69 M 9759.9,3978.15 v 0 h -806.96 v -409.53 c -96.27,162.61 -210.74,289.08 -349.24,367.36 -132.43,78.29 -295.03,120.45 -481.75,120.45 -349.22,0 -626.21,-120.45 -830.95,-361.34 -204.74,-234.87 -307.1,-554.05 -307.1,-957.55 0,-409.51 96.34,-728.7 295.05,-969.59 192.7,-240.9 457.65,-361.35 788.8,-361.35 192.7,0 361.37,36.14 499.87,114.42 144.49,84.32 277,204.77 391.38,379.41 v -397.47 h 800.9 z M 8989.1,2737.54 v 0 c 0,-192.72 -48.13,-343.28 -150.55,-457.69 -108.4,-108.41 -246.9,-162.61 -421.48,-162.61 -180.65,0 -319.14,54.2 -421.56,162.61 -102.34,114.41 -150.52,264.97 -150.52,457.69 0,192.71 48.18,349.3 150.52,463.73 102.42,108.39 240.91,168.61 421.56,168.61 174.58,0 313.08,-60.22 421.48,-174.64 102.42,-108.4 150.55,-264.99 150.55,-457.7 M 5618.23,1502.96 h 867.12 v 1415.25 48.18 c 0,240.9 -18.06,409.53 -42.14,511.9 -24.1,108.4 -66.25,198.74 -126.46,277.02 -78.28,96.36 -168.61,174.65 -283.03,222.84 -108.38,48.17 -240.86,78.28 -391.4,78.28 -186.68,0 -349.26,-42.16 -487.76,-120.45 -138.49,-72.25 -258.93,-192.7 -355.29,-349.29 -54.18,156.59 -144.5,271.01 -270.96,349.29 -132.48,78.29 -295.06,120.45 -493.78,120.45 -186.67,0 -343.23,-42.16 -481.73,-126.47 -132.48,-84.3 -252.91,-210.78 -355.28,-385.42 v 433.61 H 2342.44 V 1502.96 h 849.05 v 1047.89 c 0,349.29 30.11,584.16 96.35,698.6 66.24,108.39 180.66,168.62 343.24,168.62 132.47,0 222.8,-42.15 270.97,-120.45 54.2,-84.31 84.31,-228.85 84.31,-445.64 V 1502.96 h 843.03 v 1047.89 c 0,349.29 30.12,578.15 90.33,692.57 66.24,114.42 180.65,174.65 343.23,174.65 126.46,0 222.8,-42.15 270.97,-126.47 54.2,-78.29 84.31,-228.85 84.31,-439.62 V 1502.96" /></g></g></g></svg>